# xmcd CD database file
# Copyright (C) 1993-1998 Ti Kan
# 
# Track frame offsets:
#     150
#     18327
#     40237
#     62372
#     86207
#     109542
#     124825
#     144332
#     164552
#     187170
# 
# Disc length: 2837 seconds
# 
# Revision: 1
# Processed by: cddbd v1.4b41PL1 Copyright (c) Steve Scherf et al.
# Submitted via: DiscPlay 4.0.4
# 
DISCID=850b130a
DTITLE=ODIS - Shadows And Rain
DYEAR=1900
DGENRE=
TTITLE0=I'm a steady rollin' man
TTITLE1=Plans
TTITLE2=Sunday night - Tuesday morning blues
TTITLE3=When I'm on the road
TTITLE4=Life brings good things
TTITLE5=Courage to kill
TTITLE6=Shadows and rain
TTITLE7=I know you don't want me
TTITLE8=I got to keep moving
TTITLE9=Dancing in the moonlight
EXTD=
EXTT0=
EXTT1=
EXTT2=
EXTT3=
EXTT4=
EXTT5=
EXTT6=
EXTT7=
EXTT8=
EXTT9=
PLAYORDER=
